<?xml version="1.0" encoding="UTF-8" standalone="no"?>
<!-- Created with Inkscape (http://www.inkscape.org/) -->
<svg
   xmlns:svg="http://www.w3.org/2000/svg"
   xmlns="http://www.w3.org/2000/svg"
   version="1.0"
   width="602.36218"
   height="481.39368"
   id="svg1980">
  <defs
     id="defs1982" />
  <g
     id="layer1">
    <g
       transform="translate(392.6097,268.3347)"
       id="g1991">
      <path
         d="M 27.72115,-257.81263 C 122.44012,-257.81263 199.22323,-181.02953 199.22323,-86.310552 L 199.22323,31.034917 C 199.22323,125.75354 122.44012,202.537 27.72115,202.537 L -210.57758,202.537 C -305.29798,202.537 -382.07967,125.75354 -382.07967,31.034917 C -382.07967,-65.247718 -382.07967,-161.53035 -382.07967,-257.81263 C -245.48093,-257.81263 -108.87759,-257.81263 27.721504,-257.81263 L 27.72115,-257.81263 z "
         style="fill:white;fill-rule:evenodd"
         id="_71873936" />
      <path
         d="M 27.72115,-259.48401 L 27.72363,-259.48401 L 27.72363,-259.47728 C 75.547645,-259.47657 118.84048,-240.0961 150.17394,-208.76193 C 181.50634,-177.42917 200.88611,-134.13811 200.88788,-86.316221 L 200.89426,-86.316221 L 200.89426,-86.310906 L 200.89426,31.034563 L 200.89426,31.037398 L 200.88788,31.037398 C 200.88717,78.861412 181.50599,122.15425 150.17217,153.48771 C 118.83977,184.82046 75.548708,204.20023 27.726465,204.20165 L 27.726465,204.20838 L 27.72115,204.20838 L 27.72115,204.20165 L -210.57829,204.20165 L -210.57829,204.20838 L -210.58077,204.20838 L -210.58077,204.20165 C -258.4055,204.20094 -301.69833,184.81976 -333.03179,153.48629 C -364.36384,122.15318 -383.74325,78.862121 -383.74502,31.040232 L -383.7514,31.040232 L -383.7514,31.034563 L -383.7514,-257.81263 L -383.7514,-259.48401 L -382.08002,-259.48401 L 27.72115,-259.48401 L 27.72115,-259.48401 z M 27.72363,-256.14799 L 27.72363,-256.14126 L 27.72115,-256.14126 L -380.40758,-256.14126 L -380.40758,31.034563 L -380.40758,31.040232 L -380.41396,31.040232 C -380.4129,77.93094 -361.4027,120.3872 -330.66735,151.12326 C -299.93128,181.85968 -257.4729,200.872 -210.57936,200.87235 L -210.57936,200.86562 L -210.57688,200.86562 L -210.57688,200.87235 L 27.722567,200.87235 L 27.722567,200.86562 L 27.727882,200.86562 L 27.727882,200.87235 C 74.618944,200.87129 117.0752,181.86039 147.81056,151.12468 C 178.54697,120.38862 197.5593,77.930231 197.55965,31.037398 L 197.55327,31.037398 L 197.55327,31.034563 L 197.55327,-86.310906 L 197.55327,-86.316221 L 197.55965,-86.316221 C 197.55859,-133.20693 178.54768,-175.66319 147.81268,-206.3989 C 117.07591,-237.13602 74.617881,-256.14763 27.725048,-256.14799 L 27.72363,-256.14799 z "
         style="fill:black;fill-rule:nonzero"
         id="_46512552" />
      <path
         d="M -95.048414,161.05728 C -95.048414,168.64598 -90.636642,172.26298 -81.945619,172.26298 C -75.944674,172.26298 -69.107155,169.39645 -69.107155,161.85204 C -69.107155,156.20472 -72.59306,154.30763 -77.533847,153.02814 C -79.695265,152.49806 -85.03432,151.70507 -85.03432,148.57243 C -85.03432,145.66054 -82.166367,144.64574 -79.519871,144.64574 C -76.298296,144.64574 -73.73932,145.88236 -73.872548,149.41078 L -67.299359,149.41078 C -67.299359,142.13212 -72.680934,139.26381 -79.122666,139.26381 C -85.211131,139.26381 -91.607508,142.04283 -91.607508,149.05751 C -91.607508,154.48444 -87.636879,156.29365 -83.665894,157.52921 C -79.740265,158.7194 -75.681761,159.337 -75.681761,162.42606 C -75.681761,165.55834 -78.900855,166.88176 -81.681288,166.88176 C -85.650855,166.88176 -88.695619,165.51334 -88.475225,161.05728 L -95.048414,161.05728 z M -67.183493,171.51393 L -60.874989,171.51393 L -56.021722,148.70531 L -62.33058,148.70531 L -67.183493,171.51393 z M -54.168572,140.01322 L -60.47743,140.01322 L -61.625462,145.17582 L -55.316604,145.17582 L -54.168572,140.01322 z M -31.664321,156.60157 C -31.795778,150.55881 -36.340777,148.08629 -41.898809,148.08629 C -50.104754,148.08629 -54.780856,154.57338 -54.780856,162.33712 C -54.780856,168.99889 -50.988454,172.13153 -44.633888,172.13153 C -38.722588,172.13153 -34.751604,168.86637 -32.854518,163.17511 L -39.119439,163.17511 C -39.826329,165.42547 -41.414084,167.41184 -44.1931,167.41184 C -47.369321,167.41184 -48.516998,165.20507 -48.516998,162.46964 C -48.516998,158.54295 -46.884596,152.80775 -42.12062,152.80775 C -39.384124,152.80775 -37.929242,153.91007 -37.929242,156.60157 L -31.664321,156.60157 z M -31.205817,171.51393 L -24.941959,171.51393 L -22.38192,159.38094 C -21.720384,156.20472 -19.779715,153.02814 -15.985542,153.02814 C -14.529243,153.02814 -12.986132,153.99936 -12.986132,155.36637 C -12.986132,155.98397 -13.206526,157.48385 -13.382983,158.14539 L -16.161998,171.51393 L -9.8970774,171.51393 L -7.0741247,158.14539 C -6.897668,157.35239 -6.4125893,155.14598 -6.4125893,154.21976 C -6.4125893,150.24913 -8.7508175,148.08629 -13.073652,148.08629 C -17.177156,148.08629 -19.648258,150.02873 -20.617707,151.3518 L -20.706998,151.3518 L -18.367353,140.01322 L -24.632274,140.01322 L -31.205817,171.51393 z M 19.592449,161.63129 C 19.812843,160.52862 19.945363,159.29342 19.945363,158.05787 C 19.945363,151.44074 15.66682,148.08629 9.3136702,148.08629 C 1.5492216,148.08629 -3.260109,154.88129 -3.260109,162.16137 C -3.260109,168.64598 0.79839482,172.13153 6.8868592,172.13153 C 13.461465,172.13153 16.72556,169.39645 18.710166,164.27921 L 12.446308,164.27921 C 11.519024,165.73409 10.283473,167.41184 7.7702057,167.41184 C 4.3721743,167.41184 2.7408357,165.60228 2.7408357,162.95472 C 2.7408357,162.60251 2.7408357,162.20531 2.7844184,161.63129 L 19.592449,161.63129 z M 3.4459538,157.66066 C 4.3721743,155.10204 6.1363868,152.80775 9.6672922,152.80775 C 13.327528,152.80775 13.902607,155.32243 13.902607,157.66066 L 3.4459538,157.66066 z M 21.119969,171.51393 L 27.385245,171.51393 L 29.503788,161.4109 C 30.341071,157.52921 32.061347,153.91007 36.870677,153.91007 C 37.752607,153.91007 38.635953,154.13224 39.517882,154.30763 L 40.796307,148.22023 C 40.135835,148.13129 39.517882,148.08629 38.856347,148.08629 C 35.502252,148.08629 32.414969,149.76405 31.002607,152.89669 L 30.914733,152.80775 L 31.84237,148.70531 L 25.885363,148.70531 L 21.119969,171.51393 z M 38.289418,171.51393 L 44.554339,171.51393 L 47.112961,159.38094 C 47.775913,156.20472 49.716937,153.02814 53.51111,153.02814 C 54.966701,153.02814 56.510519,153.99936 56.510519,155.36637 C 56.510519,155.98397 56.290126,157.48385 56.113315,158.14539 L 53.333945,171.51393 L 59.599574,171.51393 L 62.422527,158.14539 C 62.598984,157.35239 63.084063,155.14598 63.084063,154.21976 C 63.084063,150.24913 60.745834,148.08629 56.421582,148.08629 C 52.319496,148.08629 49.848394,150.02873 48.877173,151.3518 L 48.789299,151.3518 L 51.127882,140.01322 L 44.863669,140.01322 L 38.289418,171.51393 z M 89.088747,161.63129 C 89.309141,160.52862 89.442015,159.29342 89.442015,158.05787 C 89.442015,151.44074 85.163117,148.08629 78.808905,148.08629 C 71.045165,148.08629 66.236543,154.88129 66.236543,162.16137 C 66.236543,168.64598 70.294692,172.13153 76.383157,172.13153 C 82.9567,172.13153 86.220794,169.39645 88.206464,164.27921 L 81.94296,164.27921 C 81.015676,165.73409 79.780125,167.41184 77.26544,167.41184 C 73.868117,167.41184 72.23607,165.60228 72.23607,162.95472 C 72.23607,162.60251 72.23607,162.20531 72.279653,161.63129 L 89.088747,161.63129 z M 72.942606,157.66066 C 73.868117,155.10204 75.634102,152.80775 79.162527,152.80775 C 82.825243,152.80775 83.397487,155.32243 83.397487,157.66066 L 72.942606,157.66066 z M 90.616267,171.51393 L 96.925479,171.51393 L 101.77839,148.70531 L 95.469534,148.70531 L 90.616267,171.51393 z M 103.6319,140.01322 L 97.322684,140.01322 L 96.17607,145.17582 L 102.48528,145.17582 L 103.6319,140.01322 z M 116.25316,141.77885 L 109.98965,141.77885 L 108.57764,148.70531 L 104.56308,148.70531 L 103.59327,152.89669 L 107.69536,152.89669 L 105.13674,165.11755 C 104.95993,165.91161 104.82705,166.7046 104.82705,167.27861 C 104.73953,170.98385 107.87182,171.91113 110.78406,171.91113 C 112.10713,171.91113 113.4302,171.82184 114.70969,171.69039 L 115.76879,166.83783 C 115.01902,166.92535 114.2689,166.96928 113.51808,166.96928 C 112.59221,166.96928 111.40201,166.92535 111.40201,165.29295 C 111.40201,165.11755 111.48953,164.72035 111.57705,164.23385 L 113.91528,152.89669 L 118.37241,152.89669 L 119.34221,148.70531 L 114.84257,148.70531 L 116.25316,141.77885 z M -81.858099,108.63086 C -78.813336,108.63086 -77.357036,110.7044 -77.357036,113.57094 C -77.357036,117.45405 -79.519871,122.26338 -84.019516,122.26338 C -86.931406,122.26338 -88.254477,119.92551 -88.254477,117.23366 C -88.254477,113.57094 -86.049477,108.63086 -81.858099,108.63086 z M -69.240029,104.527 L -75.240619,104.527 L -75.944674,108.01255 L -76.033966,108.01255 C -77.313454,105.01314 -79.871721,103.90905 -83.004359,103.90905 C -90.328375,103.90905 -94.519752,111.01267 -94.519752,117.6748 C -94.519752,123.27712 -91.166721,126.98342 -85.739792,126.98342 C -83.18117,126.98342 -81.107627,125.92468 -79.475934,123.76326 L -79.386997,123.85114 C -80.622548,128.30684 -81.769162,131.79275 -85.739792,131.79275 C -87.769753,131.79275 -89.930816,130.82153 -89.841879,128.52724 L -96.107154,128.52724 C -96.107154,133.99775 -90.98991,135.98377 -86.35739,135.98377 C -78.813336,135.98377 -75.328493,133.07188 -73.783611,126.14543 L -69.240029,104.527 z M -44.999557,117.45405 C -44.778809,116.35031 -44.645935,115.11618 -44.645935,113.88062 C -44.645935,107.26208 -48.925187,103.90905 -55.279045,103.90905 C -63.044202,103.90905 -67.852115,110.7044 -67.852115,117.98306 C -67.852115,124.46873 -63.793257,127.95322 -57.704793,127.95322 C -51.131604,127.95322 -47.866447,125.21921 -45.881486,120.10055 L -52.146761,120.10055 C -53.072627,121.55684 -54.307824,123.23318 -56.822864,123.23318 C -60.219832,123.23318 -61.852588,121.42503 -61.852588,118.77747 C -61.852588,118.42421 -61.852588,118.02806 -61.808651,117.45405 L -44.999557,117.45405 z M -61.147115,113.48342 C -60.219832,110.92515 -58.454202,108.63086 -54.926131,108.63086 C -51.263061,108.63086 -50.690817,111.14555 -50.690817,113.48342 L -61.147115,113.48342 z M -28.692549,108.63086 C -25.736723,108.63086 -24.236841,110.96873 -24.236841,113.70417 C -24.236841,117.71873 -26.354321,123.23318 -31.07436,123.23318 C -34.119478,123.23318 -35.574006,121.20322 -35.574006,118.29275 C -35.574006,114.3657 -33.368652,108.63086 -28.692549,108.63086 z M -45.54558,135.36617 L -39.280305,135.36617 L -36.89814,124.29228 L -36.76562,124.29228 C -35.795817,126.80696 -33.01503,127.95322 -30.368888,127.95322 C -21.94255,127.95322 -17.97192,120.41023 -17.97192,112.9094 C -17.97192,107.43889 -21.147786,103.90905 -26.618652,103.90905 C -29.397667,103.90905 -32.045581,104.96814 -33.457589,107.43889 L -33.545108,107.35102 L -32.92751,104.527 L -38.970974,104.527 L -45.54558,135.36617 z M -16.495778,127.33562 L -10.230503,127.33562 L -8.1130223,117.23366 C -7.2746758,113.35055 -5.5544003,109.73354 -0.74506971,109.73354 C 0.1368594,109.73354 1.0191428,109.95393 1.901072,110.13039 L 3.1802058,104.04192 C 2.5186704,103.95299 1.901072,103.90905 1.2395365,103.90905 C -2.1134949,103.90905 -5.2007783,105.58574 -6.6131404,108.71838 L -6.7020774,108.63086 L -5.7751483,104.527 L -11.731802,104.527 L -16.495778,127.33562 z M 18.938709,100.99858 L 24.717489,100.99858 L 25.776229,95.836333 L 19.996032,95.836333 L 18.938709,100.99858 z M 10.291623,100.99858 L 16.070402,100.99858 L 17.129497,95.836333 L 11.3493,95.836333 L 10.291623,100.99858 z M 27.055717,104.527 L 20.790442,104.527 L 18.23182,116.65999 C 17.570639,119.83657 15.629261,123.01243 11.835087,123.01243 C 10.379497,123.01243 8.8356781,122.04192 8.8356781,120.67456 C 8.8356781,120.05696 9.0564261,118.55673 9.2328828,117.89519 L 12.012253,104.527 L 5.7469774,104.527 L 2.9226074,117.89519 C 2.7457963,118.68995 2.261072,120.89495 2.261072,121.82224 C 2.261072,125.7918 4.5989459,127.95322 8.9231978,127.95322 C 12.18871,127.95322 14.880206,126.67551 16.909103,124.16047 L 16.996623,124.16047 L 16.290796,127.33562 L 22.290323,127.33562 L 27.055717,104.527 z M 28.928709,127.33562 L 35.193985,127.33562 L 39.121032,108.71838 L 43.620677,108.71838 L 44.502606,104.527 L 40.046898,104.527 C 40.708433,101.88086 40.664496,100.29204 43.752134,100.29204 C 44.414732,100.29204 45.120205,100.38098 45.78174,100.42456 L 46.752961,95.92527 C 45.38489,95.704876 44.017528,95.571648 42.649457,95.571648 C 36.075914,95.571648 35.017174,98.704286 33.781622,104.527 L 30.031386,104.527 L 29.149457,108.71838 L 32.855756,108.71838 L 28.928709,127.33562 z M 57.384653,97.601609 L 51.119732,97.601609 L 49.708787,104.527 L 45.692803,104.527 L 44.723354,108.71838 L 48.826858,108.71838 L 46.266465,120.93925 C 46.090008,121.7333 45.958551,122.52771 45.958551,123.10031 C 45.871032,126.80696 49.001898,127.73283 51.913787,127.73283 C 53.23863,127.73283 54.561701,127.64531 55.840834,127.51208 L 56.899575,122.65952 C 56.149102,122.74846 55.400047,122.79204 54.64922,122.79204 C 53.723708,122.79204 52.532094,122.74846 52.532094,121.1157 C 52.532094,120.93925 52.621031,120.54169 52.708551,120.05696 L 55.046779,108.71838 L 59.502488,108.71838 L 60.473708,104.527 L 55.972645,104.527 L 57.384653,97.601609 z M 83.337605,117.45405 C 83.558353,116.35031 83.68981,115.11618 83.68981,113.88062 C 83.68981,107.26208 79.410913,103.90905 73.058117,103.90905 C 65.294377,103.90905 60.485401,110.7044 60.485401,117.98306 C 60.485401,124.46873 64.543905,127.95322 70.632369,127.95322 C 77.205558,127.95322 80.470716,125.21921 82.455676,120.10055 L 76.190755,120.10055 C 75.264535,121.55684 74.029338,123.23318 71.514299,123.23318 C 68.11733,123.23318 66.484574,121.42503 66.484574,118.77747 C 66.484574,118.42421 66.484574,118.02806 66.528511,117.45405 L 83.337605,117.45405 z M 67.191818,113.48342 C 68.11733,110.92515 69.881543,108.63086 73.41174,108.63086 C 77.072684,108.63086 77.6467,111.14555 77.6467,113.48342 L 67.191818,113.48342 z M -220.94601,190.69881 L -220.97506,190.69669 C -232.32002,189.84594 -243.3305,187.78728 -253.87538,184.64968 C -264.41317,181.51421 -274.49246,177.29554 -283.98463,172.12444 C -332.76534,145.5468 -365.86656,93.815585 -365.86656,34.354287 L -365.86656,34.324524 L -365.8623,34.324524 C -365.85982,22.751374 -364.60691,11.480823 -362.23219,0.64184728 C -359.85356,-10.214845 -356.35171,-20.64705 -351.85597,-30.526144 C -328.73235,-81.335749 -279.28372,-117.63268 -220.93432,-121.99272 L -220.93432,-121.99307 L -215.56833,-122.43138 L -215.4879,-122.43138 L -111.74979,-122.46043 L -110.82747,-122.46043 L -110.72365,-121.54343 L -110.72152,-121.52429 C -110.42601,-118.9228 -110.02881,-116.33512 -109.537,-113.76976 C -109.04519,-111.20902 -108.4577,-108.66847 -107.77987,-106.15626 C -104.29822,-93.259686 -98.437941,-81.183387 -90.908414,-70.80008 L -90.714595,-70.532915 L -90.714595,-70.194175 L -90.714595,-31.410554 L -90.714595,-30.380514 L -91.744634,-30.380514 L -205.88731,-30.380514 L -205.88731,-30.376262 L -205.88979,-30.376262 L -205.88979,-30.380514 C -224.16014,-30.38016 -240.70278,-22.9339 -252.67774,-10.896578 C -264.65341,1.1414536 -272.06105,17.771611 -272.06211,36.138342 L -272.0575,36.138342 L -272.0575,36.143657 L -272.0575,36.146138 L -272.06211,36.146138 C -272.06176,54.514996 -264.65306,71.14657 -252.67597,83.184955 C -240.70207,95.220152 -224.16121,102.66535 -205.89262,102.66641 L -205.89262,102.66216 L -205.88731,102.66216 L -198.38719,102.66216 L -198.38719,84.461255 L -202.68664,84.461255 L -202.68912,84.461255 L -202.68912,84.457003 C -215.349,84.456294 -226.80841,79.326649 -235.09939,71.034247 C -243.39002,62.742909 -248.51825,51.285271 -248.51967,38.626807 L -248.52392,38.626807 L -248.52392,38.621492 L -248.52392,38.619012 L -248.51967,38.619012 C -248.51896,25.944603 -242.84436,14.477752 -234.00664,6.1857054 C -225.1831,-2.0925227 -213.19751,-7.2140187 -200.55747,-7.215436 L -200.55747,-7.219688 L -200.5518,-7.219688 L -105.61243,-7.219688 L -104.57814,-7.219688 L -104.57814,-6.1853966 L -104.57814,190.10885 L -104.57814,191.14279 L -105.61243,191.14314 L -216.55479,191.14314 L -216.65577,191.13464 L -220.94601,190.69739 L -220.94601,190.69881 z M 4.2616231,-126.01012 L 4.2616231,-126.01437 L 4.2644577,-126.01437 L 4.2644577,-126.01012 L 91.793353,-125.68909 L 91.886542,-125.68484 C 130.56953,-122.14154 163.21615,-98.028268 178.47115,-64.270828 C 181.43831,-57.703663 183.74855,-50.772246 185.31611,-43.558427 C 186.88119,-36.354884 187.70678,-28.856538 187.70855,-21.14453 L 187.7128,-21.14453 L 187.7128,-21.120081 C 187.7128,18.488422 165.90304,53.002358 133.63875,71.066846 C 127.36532,74.579326 120.69363,77.471019 113.70906,79.657239 C 106.73406,81.84027 99.439455,83.319601 91.910282,84.011255 L 91.886542,84.013381 L 91.793353,84.017278 L -94.944595,84.457003 L -95.978886,84.459129 L -95.978886,83.426963 L -95.978886,-6.1853966 L -95.978532,-7.2200423 L -94.944595,-7.219688 L 82.137133,-7.219688 L 82.142448,-7.219688 L 82.142448,-7.215436 C 85.39166,-7.216499 88.334377,-8.5154753 90.464967,-10.613467 C 92.591306,-12.708271 93.907645,-15.601735 93.907999,-18.795318 L 93.903747,-18.795318 L 93.903747,-18.797798 L 93.903747,-18.801696 L 93.907999,-18.801696 C 93.906936,-21.952404 92.092408,-24.920278 89.463983,-27.112876 C 86.789495,-29.344097 83.29792,-30.758939 80.004771,-30.759294 L 80.004771,-30.755042 L 80.002291,-30.755042 L -26.671801,-30.755042 L -26.760738,-30.759294 L -27.795738,-30.849294 L -28.030305,-30.901735 C -56.045462,-40.201853 -78.977036,-60.665513 -91.565343,-87.024883 C -94.009162,-92.142127 -96.066406,-97.49252 -97.695973,-103.03496 C -100.55152,-112.74256 -102.084,-123.0224 -102.08471,-133.6626 L -102.08896,-133.6626 L -102.08896,-133.67004 L -102.08896,-133.67535 L -102.08471,-133.67535 C -102.08294,-163.56421 -89.986091,-190.62268 -70.428808,-210.20795 C -51.016446,-229.6483 -24.251723,-241.72708 5.3295758,-241.90956 L 5.3295758,-241.91417 L 6.0063474,-241.91417 L 6.0063474,-241.91878 L 6.0088278,-241.91878 L 6.0088278,-241.91417 L 83.203668,-241.91417 L 84.23796,-241.91417 L 84.23796,-240.88449 L 84.23796,-150.20524 L 84.23796,-149.17094 L 83.203668,-149.17094 L 4.2644577,-149.17094 L 4.2591428,-149.17094 L 4.2591428,-149.17555 C 1.0099302,-149.17413 -1.9327862,-147.87551 -4.0633767,-145.77646 C -6.1897152,-143.68165 -7.5064081,-140.78819 -7.5067625,-137.59531 L -7.5025105,-137.59531 L -7.5025105,-137.59283 L -7.5025105,-137.58752 L -7.5067625,-137.58752 C -7.5056995,-134.39642 -6.1907782,-131.50472 -4.0651484,-129.41063 C -1.9342035,-127.31051 1.0106389,-126.01047 4.2616231,-126.01012 L 4.2616231,-126.01012 z "
         style="fill:black;fill-rule:evenodd"
         id="_77021000" />
    </g>
  </g>
</svg>
