<svg version="1.1" viewBox="0 0 476.5 68" xmlns="http://www.w3.org/2000/svg" xmlns:xlink="http://www.w3.org/1999/xlink" id="Ebene_1" overflow="hidden"><g><g><path d=" M 73.2 67.3 L 73.2 21.2 L 83.6 21.2 L 83.6 67.3 L 73.2 67.3 Z"/><path d=" M 118.1 67.3 C 118.1 67.3 110.1 52.8 105.1 43.6 C 104.4 42.2 102.9 38.9 102.9 38.9 C 102.9 38.9 103.1 42.4 103.1 43.9 C 103.1 53 103.1 67.3 103.1 67.3 L 93.9 67.3 L 93.9 21.2 L 103.1 21.2 C 103.1 21.2 111.3 36.2 116.5 45.7 C 117 46.8 118.5 50.6 118.5 50.6 C 118.5 50.6 118.1 46.9 118.1 45.7 C 118.1 36.2 118.1 21.2 118.1 21.2 L 127.3 21.2 L 127.3 67.3 L 118.1 67.3 Z"/><path d=" M 152.5 67.3 L 136.6 67.3 L 136.6 21.2 L 153 21.2 C 164.6 21.2 172.6 28.7 172.6 45.6 C 172.7 59.3 165.3 67.3 152.5 67.3 Z M 150.7 28.3 L 146.4 28.3 L 146.4 60.3 L 151.5 60.3 C 158.4 60.3 162.1 56.8 162.1 44.5 C 162.1 32.2 157.3 28.3 150.7 28.3 Z"/><path d=" M 197.1 68 C 184.3 68 180.4 62.2 180.4 53 L 180.4 21.2 L 190.5 21.2 L 190.5 52 C 190.5 57.8 191.7 60.8 197.2 60.8 C 203.3 60.8 204 57 204 52 L 204 21.2 L 214 21.2 L 214 53 C 213.9 62.3 209.2 68 197.1 68 Z"/><path d=" M 236.6 68 C 226.1 68 220.5 63.7 220.5 56.6 C 220.5 55 220.8 54.1 221.1 53 L 230.7 52.7 C 230.4 53.5 230.1 54.4 230.1 55.8 C 230.1 59.1 231.8 61.3 236.6 61.3 C 241.2 61.3 243.9 59.6 243.9 55.5 C 243.9 52.3 242.1 50.2 235.1 47.5 L 228.3 44.9 C 222.8 42.8 220.8 38.5 220.8 33.4 C 220.8 25.9 226 20.4 236.5 20.4 C 245.1 20.4 250.8 24.9 250.8 31.5 C 250.8 32.3 250.6 33.7 250.2 34.7 L 241.2 34.9 C 241.4 34.3 241.5 33.6 241.5 32.7 C 241.5 28.4 239.3 26.9 235.7 26.9 C 232.2 26.9 230.1 28.6 230.1 31.3 C 230.1 34.4 231.9 35.8 236.5 37.7 L 244.1 40.8 C 250.6 43.4 253.6 48.1 253.6 53.6 C 253.8 63.2 248 68 236.6 68 Z"/><path d=" M 278.6 28.8 L 278.6 67.3 L 268.3 67.3 L 268.3 28.8 L 257 28.8 L 257 21.2 L 289.9 21.2 L 289.9 28.8 L 278.6 28.8 Z"/><path d=" M 318.1 67.3 C 316.8 66.4 316.5 64.1 316.3 62 C 316.2 60.6 316.2 57.1 316.2 54.8 C 316.1 51.6 314.9 49.1 310.6 49.1 L 306.1 49.1 L 306.1 67.3 L 295.8 67.3 L 295.8 21.2 L 312 21.2 C 322.5 21.2 328 26 328 34.9 C 328 42 323.5 44 318.8 44.9 C 324.7 45.8 326.6 49.8 326.8 57.3 C 326.9 59.1 327 61 327 62.1 C 327.1 64 327.8 66.5 328.7 67.3 L 318.1 67.3 Z M 308.9 28.3 L 306.1 28.3 L 306.1 41.6 L 310.1 41.6 C 314.7 41.6 317.4 40.1 317.4 35.1 C 317.4 30.4 314.2 28.3 308.9 28.3 Z"/></g><g><path d=" M 336.7 67.3 L 336.7 21.2 L 347 21.2 L 347 67.3 L 336.7 67.3 Z"/></g><g><path d=" M 357.4 67.3 L 357.4 21.2 L 385.3 21.2 L 385.3 28.6 L 367.5 28.6 L 367.5 39.7 L 383.5 39.7 L 383.5 47.5 L 367.5 47.5 L 367.5 59.9 L 386.8 59.9 L 386.8 67.3 L 357.4 67.3 Z"/><path d=" M 422.1 57.7 L 422.1 67.3 L 413.8 67.3 L 413.8 57.7 L 395.9 57.7 L 395.9 48.8 L 411 21.2 L 422.1 21.2 L 422.1 50.5 L 426.5 50.5 L 426.5 57.7 L 422.1 57.7 Z M 413.8 32.2 L 402.9 50.6 L 413.8 50.6 L 413.8 32.2 Z"/></g><g><path d=" M 462 68 C 451.6 68 447.5 61.8 447.5 46.5 C 447.5 29 450.3 20.5 462 20.5 C 472.6 20.5 476.6 29.3 476.6 46.4 C 476.5 61.1 472 68 462 68 Z M 462 27.3 C 458.2 27.3 457.3 29.9 457.3 44.8 C 457.3 56.8 458.1 61.2 462 61.2 C 465.9 61.2 466.8 57.6 466.8 44.8 C 466.8 29.9 465.3 27.3 462 27.3 Z"/></g></g><g><path d=" M 105.6 6.5 L 104.1 6.5 L 104.1 10.4 L 102.4 10.4 L 102.4 0.3 L 105.3 0.3 C 107.5 0.3 108.8 1.1 108.8 3.4 C 108.8 5.7 107.5 6.5 105.6 6.5 Z M 105.6 1.6 L 104.1 1.6 L 104.1 5.2 L 105.7 5.2 C 106.4 5.2 107.1 4.6 107.1 3.4 C 107.1 2.2 106.4 1.6 105.6 1.6 Z"/><path d=" M 128.4 10.4 L 128.4 0.3 L 130.1 0.3 L 130.1 9 L 133.8 9 L 133.8 10.3 L 128.4 10.3 Z"/><path d=" M 158.8 10.4 L 158.3 8.2 L 155.2 8.2 L 154.7 10.4 L 153 10.4 L 155.6 0.3 L 157.8 0.3 L 160.5 10.4 L 158.8 10.4 Z M 156.6 1.8 L 155.5 6.7 L 157.9 6.7 L 156.6 1.8 Z"/><path d=" M 182.6 1.6 L 182.6 10.4 L 180.9 10.4 L 180.9 1.6 L 178.4 1.6 L 178.4 0.3 L 185 0.3 L 185 1.6 L 182.6 1.6 Z"/><path d=" M 208.2 1.6 L 208.2 10.4 L 206.5 10.4 L 206.5 1.6 L 204 1.6 L 204 0.3 L 210.6 0.3 L 210.6 1.6 L 208.2 1.6 Z"/><path d=" M 231.8 1.6 L 231.8 4.7 L 235.3 4.7 L 235.3 6 L 231.8 6 L 231.8 10.3 L 230.2 10.3 L 230.2 0.3 L 235.6 0.3 L 235.6 1.6 L 231.8 1.6 Z"/><path d=" M 258.7 10.5 C 256.2 10.5 254.8 9.3 254.8 5.3 C 254.8 1.5 256.4 0.1 258.7 0.1 C 261 0.1 262.6 1.5 262.6 5.3 C 262.6 9.4 261.1 10.5 258.7 10.5 Z M 258.7 1.4 C 257.4 1.4 256.6 2.2 256.6 5.4 C 256.6 8.7 257.4 9.3 258.7 9.3 C 259.9 9.3 260.9 8.7 260.9 5.4 C 260.9 2.1 259.9 1.4 258.7 1.4 Z"/><path d=" M 287.1 10.4 C 286.9 10.1 286.8 9.7 286.8 9.2 C 286.8 8.9 286.8 8 286.8 7.5 C 286.8 6.9 286.4 6.3 285.5 6.3 L 284 6.3 L 284 10.4 L 282.3 10.4 L 282.3 0.3 L 285.5 0.3 C 287.6 0.3 288.7 1.4 288.7 3.3 C 288.7 4.9 287.9 5.4 287 5.7 C 288 5.8 288.5 6.7 288.5 8.3 C 288.5 8.7 288.5 9.1 288.5 9.4 C 288.5 9.8 288.6 10.3 288.7 10.5 L 287.1 10.5 Z M 285.4 1.6 L 284.1 1.6 L 284.1 4.9 L 285.6 4.9 C 286.6 4.9 287.2 4.4 287.2 3.3 C 287.2 2.2 286.5 1.6 285.4 1.6 Z"/><path d=" M 316.1 10.4 L 316.1 2.2 L 313.8 10.3 L 312.3 10.3 L 310.3 2.2 L 310.3 10.3 L 308.8 10.3 L 308.8 0.3 L 311.3 0.3 L 313.2 7.9 L 315.3 0.3 L 317.7 0.3 L 317.7 10.4 L 316.1 10.4 Z"/></g><rect x="73.2" y="0" width="10.4" height="10.4" fill="#0075A0"/><rect x="336.7" y="0" width="10.4" height="10.4" fill="#0075A0"/><rect x="432" y="57.1" width="10.4" height="10.4" fill="#0075A0"/><rect x="53.9" y="38.2" width="10.3" height="29.3" fill="#0075A0"/><rect x="35.9" y="46.8" width="10.3" height="20.7" fill="#3A9ABE"/><rect x="18" y="54" width="10.3" height="13.5" fill="#7DB6D2"/><rect x="0" y="61.8" width="10.3" height="5.7" fill="#CCE1EE"/></svg>