<?xml version="1.0" encoding="UTF-8"?>
<!DOCTYPE svg PUBLIC "-//W3C//DTD SVG 1.1//EN" "http://www.w3.org/Graphics/SVG/1.1/DTD/svg11.dtd">
<svg xmlns="http://www.w3.org/2000/svg" xmlns:xlink="http://www.w3.org/1999/xlink" version="1.1" width="52px" height="52px" viewBox="-0.5 -0.5 52 52"><defs/><g><rect x="0" y="0" width="51" height="50" fill="none" stroke="none" pointer-events="all"/><path d="M 4.28 50 L 4.28 25.99 L 2.24 25.99 C 0.67 25.93 0 24.29 0.92 23.17 L 23.64 1.21 C 25.15 0 25.78 0.12 27.11 1.08 L 37.54 10.98 L 37.54 4.95 C 37.54 4.28 38.1 3.47 39.05 3.47 L 43.62 3.47 C 44.38 3.47 45.09 4.07 45.09 4.99 L 45.09 18.49 L 49.94 23.15 C 51 24.38 50.07 25.99 48.61 25.99 L 46.61 25.99 L 46.61 50 L 30.74 50 L 30.74 31.99 L 20.15 31.99 L 20.15 50 Z" fill="#ffffff" stroke="none" pointer-events="all"/></g></svg>