<svg width="66" height="46" xmlns="http://www.w3.org/2000/svg" xmlns:xlink="http://www.w3.org/1999/xlink" overflow="hidden"><defs><clipPath id="clip0"><rect x="351" y="271" width="66" height="46"/></clipPath></defs><g clip-path="url(#clip0)" transform="translate(-351 -271)"><path d="M57.5215 3.55385 8.47846 3.55385C7.71692 3.55385 6.95538 3.90923 6.39692 4.46769L2.89385 9.49385C2.43692 10.0523 2.13231 10.7123 2.13231 11.4738L2.13231 39.2954C2.13231 40.8692 3.40154 42.1892 4.92462 42.1892L5.28 42.1892C6.85385 42.1892 8.07231 40.92 8.07231 39.2954L8.07231 29.8523C8.07231 29.1415 7.92 29.04 8.42769 28.5323 8.42769 28.5323 12.0323 24.7754 12.1338 24.8262L53.8154 24.8262C53.9169 24.8262 57.5215 28.38 57.5215 28.38 58.08 28.9385 57.9785 29.1923 57.9785 29.9538L57.9785 39.2446C57.9785 40.8185 59.2477 42.1385 60.7708 42.1385L60.9739 42.1385C62.5477 42.1385 63.7662 40.8692 63.7662 39.2446L63.7662 11.4231C63.7662 10.7123 63.5123 10.0015 63.0046 9.44308L59.5015 4.41692C59.0446 3.85846 58.3339 3.55385 57.5215 3.55385Z" stroke="#FFFFFF" stroke-width="1.33333" fill="none" transform="matrix(1 0 0 1.00673 351 271)"/></g></svg>